<svg xmlns="http://www.w3.org/2000/svg" viewBox="0 0 1000 420" font-family="Arial, sans-serif">
  <rect width="1000" height="420" fill="#f6f8fa"/>

  <rect x="0" y="0" width="1000" height="50" fill="#24292f"/>
  <text x="20" y="31" font-size="16" fill="white" font-weight="bold">karolinecristinay-eng / techflow-taskmanager</text>
  <text x="780" y="31" font-size="13" fill="#8b949e">Actions</text>

  <rect x="0" y="50" width="1000" height="60" fill="white" stroke="#d0d7de"/>
  <text x="20" y="86" font-size="14" font-weight="bold">CI - Testes Automatizados</text>

  <!-- Run row -->
  <rect x="0" y="110" width="1000" height="60" fill="white" stroke="#d0d7de"/>
  <circle cx="35" cy="140" r="11" fill="#2da44e"/>
  <path d="M 30 140 L 34 144 L 41 135" stroke="white" stroke-width="2.5" fill="none"/>
  <text x="60" y="135" font-size="13" font-weight="bold">ci: configura pipeline de integração contínua com GitHub Actions</text>
  <text x="60" y="153" font-size="11" fill="#57606a">main · pytest -v --maxfail=1 · concluído com sucesso</text>
  <text x="880" y="145" font-size="11" fill="#57606a">≈ 18s</text>

  <!-- Steps detail box -->
  <rect x="20" y="185" width="960" height="200" fill="#f6f8fa" stroke="#d0d7de"/>
  <text x="40" y="212" font-size="12" font-weight="bold" fill="#24292f">Jobs / test</text>

  <g font-size="12" fill="#24292f">
    <g><circle cx="45" cy="236" r="7" fill="#2da44e"/><path d="M 41.5 236 L 44 238.5 L 49 232.5" stroke="white" stroke-width="1.8" fill="none"/></g>
    <text x="58" y="240">Checkout do código</text>

    <g><circle cx="45" cy="260" r="7" fill="#2da44e"/><path d="M 41.5 260 L 44 262.5 L 49 256.5" stroke="white" stroke-width="1.8" fill="none"/></g>
    <text x="58" y="264">Configurar Python 3.11</text>

    <g><circle cx="45" cy="284" r="7" fill="#2da44e"/><path d="M 41.5 284 L 44 286.5 L 49 280.5" stroke="white" stroke-width="1.8" fill="none"/></g>
    <text x="58" y="288">Instalar dependências (pip install -r requirements.txt)</text>

    <g><circle cx="45" cy="308" r="7" fill="#2da44e"/><path d="M 41.5 308 L 44 310.5 L 49 304.5" stroke="white" stroke-width="1.8" fill="none"/></g>
    <text x="58" y="312">Rodar testes automatizados (Pytest) — 22 passed</text>

    <g><circle cx="45" cy="332" r="7" fill="#2da44e"/><path d="M 41.5 332 L 44 334.5 L 49 328.5" stroke="white" stroke-width="1.8" fill="none"/></g>
    <text x="58" y="336">Verificar qualidade básica do código (py_compile)</text>
  </g>

  <text x="500" y="405" font-size="11.5" text-anchor="middle" fill="#8b949e">
    Execução esperada após o push do arquivo .github/workflows/ci.yml incluído nesta entrega
  </text>
</svg>
